<svg width="481" height="476" viewBox="0 0 481 476" fill="none" xmlns="http://www.w3.org/2000/svg">
<path d="M376.412 216.893C376.381 204.245 376.396 191.476 376.696 178.708C377.695 136.192 381.981 93.6306 399.335 55.624L399.036 55.3707C394.541 51.652 388.941 49.576 383.46 47.56C358.013 38.212 332.551 28.864 307.104 19.5147C303.311 18.1253 299.517 16.7373 295.724 15.348C295.261 16.6173 294.739 17.8573 294.156 19.0827C290.004 27.892 283.344 35.5093 275.085 40.7053C264.931 47.112 250.908 48.0827 240.604 48.0827H239.932C229.628 48.0827 215.605 47.112 205.449 40.7053C197.207 35.5093 190.531 27.892 186.38 19.0827C185.797 17.8573 185.275 16.6027 184.812 15.3333C181.019 16.7373 177.225 18.1253 173.432 19.5147C147.971 28.864 122.508 38.212 97.0609 47.56C91.5948 49.576 85.9948 51.652 81.5 55.3707L81.201 55.624C98.5541 93.6306 102.841 136.177 103.841 178.693V178.724C104.125 191.492 104.139 204.26 104.109 216.893C103.975 294.221 103.811 371.563 103.676 448.889C103.661 452.415 103.661 455.953 103.661 459.477C149.016 463.927 196.265 463.957 239.903 463.957H240.635C284.271 463.957 331.521 463.927 376.875 459.477C376.875 455.953 376.86 452.415 376.86 448.889C376.711 371.563 376.56 294.221 376.412 216.893Z" fill="white"/>
<mask id="mask0_1_6339" style="mask-type:luminance" maskUnits="userSpaceOnUse" x="81" y="19" width="319" height="435">
<path d="M376.412 216.893C376.56 294.221 376.711 371.563 376.86 448.889C331.521 453.34 284.255 453.369 240.635 453.369H239.903C196.281 453.369 149.016 453.34 103.676 448.889C103.811 371.563 103.975 294.221 104.109 216.893C104.139 204.26 104.125 191.492 103.841 178.724V178.693C102.841 136.177 98.5541 93.6307 81.201 55.624L81.5 55.3707C85.9948 51.652 91.5948 49.576 97.0609 47.56C122.508 38.212 147.971 28.864 173.432 19.5147C177.793 32.104 187.604 42.5133 199.327 48.8893C211.737 55.6387 225.924 57.82 240.231 57.82H240.291C254.612 57.82 268.799 55.6387 281.195 48.8893C292.932 42.5133 302.744 32.104 307.104 19.5147C332.551 28.864 358.013 38.212 383.46 47.56C388.941 49.576 394.541 51.652 399.036 55.3707L399.335 55.624C381.981 93.6307 377.695 136.192 376.696 178.708C376.396 191.476 376.381 204.245 376.412 216.893Z" fill="white"/>
</mask>
<g mask="url(#mask0_1_6339)">
<path d="M101.754 158.756C111.528 148.493 124.039 140.849 137.633 136.836C137.985 136.732 138.188 136.361 138.084 136.008C137.979 135.655 137.608 135.453 137.256 135.557C123.433 139.639 110.727 147.403 100.789 157.837C100.535 158.104 100.545 158.525 100.812 158.78C101.078 159.033 101.501 159.023 101.754 158.756Z" fill="#DFE1E7"/>
</g>
<mask id="mask1_1_6339" style="mask-type:luminance" maskUnits="userSpaceOnUse" x="81" y="19" width="319" height="435">
<path d="M376.412 216.893C376.56 294.221 376.711 371.563 376.86 448.889C331.521 453.34 284.255 453.369 240.635 453.369H239.903C196.281 453.369 149.016 453.34 103.676 448.889C103.811 371.563 103.975 294.221 104.109 216.893C104.139 204.26 104.125 191.492 103.841 178.724V178.693C102.841 136.177 98.5541 93.6307 81.201 55.624L81.5 55.3707C85.9948 51.652 91.5948 49.576 97.0609 47.56C122.508 38.212 147.971 28.864 173.432 19.5147C177.793 32.104 187.604 42.5133 199.327 48.8893C211.737 55.6387 225.924 57.82 240.231 57.82H240.291C254.612 57.82 268.799 55.6387 281.195 48.8893C292.932 42.5133 302.744 32.104 307.104 19.5147C332.551 28.864 358.013 38.212 383.46 47.56C388.941 49.576 394.541 51.652 399.036 55.3707L399.335 55.624C381.981 93.6307 377.695 136.192 376.696 178.708C376.396 191.476 376.381 204.245 376.412 216.893Z" fill="white"/>
</mask>
<g mask="url(#mask1_1_6339)">
<path d="M102.24 172.22C112.973 167.92 124.424 165.411 135.971 164.828C136.339 164.811 136.621 164.497 136.603 164.129C136.585 163.761 136.272 163.479 135.904 163.497C124.209 164.087 112.615 166.627 101.744 170.983C101.402 171.119 101.236 171.507 101.373 171.849C101.509 172.191 101.897 172.357 102.24 172.22Z" fill="#DFE1E7"/>
</g>
<mask id="mask2_1_6339" style="mask-type:luminance" maskUnits="userSpaceOnUse" x="81" y="19" width="319" height="435">
<path d="M376.412 216.893C376.56 294.221 376.711 371.563 376.86 448.889C331.521 453.34 284.255 453.369 240.635 453.369H239.903C196.281 453.369 149.016 453.34 103.676 448.889C103.811 371.563 103.975 294.221 104.109 216.893C104.139 204.26 104.125 191.492 103.841 178.724V178.693C102.841 136.177 98.5541 93.6307 81.201 55.624L81.5 55.3707C85.9948 51.652 91.5948 49.576 97.0609 47.56C122.508 38.212 147.971 28.864 173.432 19.5147C177.793 32.104 187.604 42.5133 199.327 48.8893C211.737 55.6387 225.924 57.82 240.231 57.82H240.291C254.612 57.82 268.799 55.6387 281.195 48.8893C292.932 42.5133 302.744 32.104 307.104 19.5147C332.551 28.864 358.013 38.212 383.46 47.56C388.941 49.576 394.541 51.652 399.036 55.3707L399.335 55.624C381.981 93.6307 377.695 136.192 376.696 178.708C376.396 191.476 376.381 204.245 376.412 216.893Z" fill="white"/>
</mask>
<g mask="url(#mask2_1_6339)">
<path d="M120.107 219.153C119.227 240.863 118.787 262.589 118.787 284.316C118.787 301.719 119.069 319.12 119.633 336.513C119.645 336.881 119.953 337.171 120.321 337.159C120.689 337.147 120.979 336.839 120.967 336.471C120.403 319.092 120.12 301.704 120.12 284.316C120.12 262.608 120.56 240.899 121.44 219.208C121.455 218.84 121.168 218.529 120.8 218.515C120.432 218.5 120.123 218.787 120.107 219.153Z" fill="#DFE1E7"/>
</g>
<mask id="mask3_1_6339" style="mask-type:luminance" maskUnits="userSpaceOnUse" x="81" y="19" width="319" height="435">
<path d="M376.412 216.893C376.56 294.221 376.711 371.563 376.86 448.889C331.521 453.34 284.255 453.369 240.635 453.369H239.903C196.281 453.369 149.016 453.34 103.676 448.889C103.811 371.563 103.975 294.221 104.109 216.893C104.139 204.26 104.125 191.492 103.841 178.724V178.693C102.841 136.177 98.5541 93.6307 81.201 55.624L81.5 55.3707C85.9948 51.652 91.5948 49.576 97.0609 47.56C122.508 38.212 147.971 28.864 173.432 19.5147C177.793 32.104 187.604 42.5133 199.327 48.8893C211.737 55.6387 225.924 57.82 240.231 57.82H240.291C254.612 57.82 268.799 55.6387 281.195 48.8893C292.932 42.5133 302.744 32.104 307.104 19.5147C332.551 28.864 358.013 38.212 383.46 47.56C388.941 49.576 394.541 51.652 399.036 55.3707L399.335 55.624C381.981 93.6307 377.695 136.192 376.696 178.708C376.396 191.476 376.381 204.245 376.412 216.893Z" fill="white"/>
</mask>
<g mask="url(#mask3_1_6339)">
<path d="M99.5817 429.703C125.507 430.596 151.433 431.488 177.36 432.38C177.728 432.392 178.036 432.104 178.049 431.736C178.061 431.368 177.773 431.06 177.405 431.047C151.48 430.155 125.553 429.264 99.6281 428.371C99.2599 428.357 98.9511 428.645 98.9385 429.014C98.926 429.381 99.2136 429.691 99.5817 429.703Z" fill="#DFE1E7"/>
</g>
<mask id="mask4_1_6339" style="mask-type:luminance" maskUnits="userSpaceOnUse" x="81" y="19" width="319" height="435">
<path d="M376.412 216.893C376.56 294.221 376.711 371.563 376.86 448.889C331.521 453.34 284.255 453.369 240.635 453.369H239.903C196.281 453.369 149.016 453.34 103.676 448.889C103.811 371.563 103.975 294.221 104.109 216.893C104.139 204.26 104.125 191.492 103.841 178.724V178.693C102.841 136.177 98.5541 93.6307 81.201 55.624L81.5 55.3707C85.9948 51.652 91.5948 49.576 97.0609 47.56C122.508 38.212 147.971 28.864 173.432 19.5147C177.793 32.104 187.604 42.5133 199.327 48.8893C211.737 55.6387 225.924 57.82 240.231 57.82H240.291C254.612 57.82 268.799 55.6387 281.195 48.8893C292.932 42.5133 302.744 32.104 307.104 19.5147C332.551 28.864 358.013 38.212 383.46 47.56C388.941 49.576 394.541 51.652 399.036 55.3707L399.335 55.624C381.981 93.6307 377.695 136.192 376.696 178.708C376.396 191.476 376.381 204.245 376.412 216.893Z" fill="white"/>
</mask>
<g mask="url(#mask4_1_6339)">
<path d="M371.397 54.8573C351.555 44.484 330.163 37.0853 308.152 32.9813C307.791 32.9147 307.443 33.1533 307.375 33.5147C307.307 33.8773 307.545 34.2253 307.908 34.2933C329.788 38.3707 351.056 45.7267 370.779 56.04C371.105 56.2093 371.508 56.084 371.679 55.7573C371.849 55.4306 371.723 55.028 371.397 54.8573Z" fill="#DFE1E7"/>
</g>
<mask id="mask5_1_6339" style="mask-type:luminance" maskUnits="userSpaceOnUse" x="81" y="19" width="319" height="435">
<path d="M376.412 216.893C376.56 294.221 376.711 371.563 376.86 448.889C331.521 453.34 284.255 453.369 240.635 453.369H239.903C196.281 453.369 149.016 453.34 103.676 448.889C103.811 371.563 103.975 294.221 104.109 216.893C104.139 204.26 104.125 191.492 103.841 178.724V178.693C102.841 136.177 98.5541 93.6307 81.201 55.624L81.5 55.3707C85.9948 51.652 91.5948 49.576 97.0609 47.56C122.508 38.212 147.971 28.864 173.432 19.5147C177.793 32.104 187.604 42.5133 199.327 48.8893C211.737 55.6387 225.924 57.82 240.231 57.82H240.291C254.612 57.82 268.799 55.6387 281.195 48.8893C292.932 42.5133 302.744 32.104 307.104 19.5147C332.551 28.864 358.013 38.212 383.46 47.56C388.941 49.576 394.541 51.652 399.036 55.3707L399.335 55.624C381.981 93.6307 377.695 136.192 376.696 178.708C376.396 191.476 376.381 204.245 376.412 216.893Z" fill="white"/>
</mask>
<g mask="url(#mask5_1_6339)">
<path d="M379.743 157.837C369.805 147.403 357.099 139.639 343.276 135.557C342.924 135.453 342.553 135.655 342.448 136.008C342.344 136.361 342.547 136.732 342.899 136.836C356.493 140.849 369.004 148.493 378.777 158.756C379.032 159.023 379.453 159.033 379.72 158.78C379.987 158.525 379.997 158.104 379.743 157.837Z" fill="#DFE1E7"/>
</g>
<mask id="mask6_1_6339" style="mask-type:luminance" maskUnits="userSpaceOnUse" x="81" y="19" width="319" height="435">
<path d="M376.412 216.893C376.56 294.221 376.711 371.563 376.86 448.889C331.521 453.34 284.255 453.369 240.635 453.369H239.903C196.281 453.369 149.016 453.34 103.676 448.889C103.811 371.563 103.975 294.221 104.109 216.893C104.139 204.26 104.125 191.492 103.841 178.724V178.693C102.841 136.177 98.5541 93.6307 81.201 55.624L81.5 55.3707C85.9948 51.652 91.5948 49.576 97.0609 47.56C122.508 38.212 147.971 28.864 173.432 19.5147C177.793 32.104 187.604 42.5133 199.327 48.8893C211.737 55.6387 225.924 57.82 240.231 57.82H240.291C254.612 57.82 268.799 55.6387 281.195 48.8893C292.932 42.5133 302.744 32.104 307.104 19.5147C332.551 28.864 358.013 38.212 383.46 47.56C388.941 49.576 394.541 51.652 399.036 55.3707L399.335 55.624C381.981 93.6307 377.695 136.192 376.696 178.708C376.396 191.476 376.381 204.245 376.412 216.893Z" fill="white"/>
</mask>
<g mask="url(#mask6_1_6339)">
<path d="M378.788 170.983C367.917 166.627 356.323 164.087 344.628 163.497C344.26 163.479 343.947 163.761 343.929 164.129C343.909 164.497 344.193 164.811 344.561 164.828C356.108 165.411 367.559 167.92 378.292 172.22C378.633 172.357 379.021 172.191 379.159 171.849C379.296 171.507 379.129 171.119 378.788 170.983Z" fill="#DFE1E7"/>
</g>
<mask id="mask7_1_6339" style="mask-type:luminance" maskUnits="userSpaceOnUse" x="81" y="19" width="319" height="435">
<path d="M376.412 216.893C376.56 294.221 376.711 371.563 376.86 448.889C331.521 453.34 284.255 453.369 240.635 453.369H239.903C196.281 453.369 149.016 453.34 103.676 448.889C103.811 371.563 103.975 294.221 104.109 216.893C104.139 204.26 104.125 191.492 103.841 178.724V178.693C102.841 136.177 98.5541 93.6307 81.201 55.624L81.5 55.3707C85.9948 51.652 91.5948 49.576 97.0609 47.56C122.508 38.212 147.971 28.864 173.432 19.5147C177.793 32.104 187.604 42.5133 199.327 48.8893C211.737 55.6387 225.924 57.82 240.231 57.82H240.291C254.612 57.82 268.799 55.6387 281.195 48.8893C292.932 42.5133 302.744 32.104 307.104 19.5147C332.551 28.864 358.013 38.212 383.46 47.56C388.941 49.576 394.541 51.652 399.036 55.3707L399.335 55.624C381.981 93.6307 377.695 136.192 376.696 178.708C376.396 191.476 376.381 204.245 376.412 216.893Z" fill="white"/>
</mask>
<g mask="url(#mask7_1_6339)">
<path d="M359.092 219.208C359.972 240.899 360.411 262.607 360.411 284.316C360.411 301.704 360.129 319.092 359.565 336.471C359.553 336.839 359.843 337.147 360.211 337.159C360.579 337.171 360.887 336.881 360.899 336.513C361.463 319.12 361.744 301.719 361.744 284.316C361.744 262.589 361.305 240.863 360.424 219.153C360.409 218.785 360.1 218.5 359.732 218.515C359.364 218.529 359.077 218.84 359.092 219.208Z" fill="#DFE1E7"/>
</g>
<mask id="mask8_1_6339" style="mask-type:luminance" maskUnits="userSpaceOnUse" x="81" y="19" width="319" height="435">
<path d="M376.412 216.893C376.56 294.221 376.711 371.563 376.86 448.889C331.521 453.34 284.255 453.369 240.635 453.369H239.903C196.281 453.369 149.016 453.34 103.676 448.889C103.811 371.563 103.975 294.221 104.109 216.893C104.139 204.26 104.125 191.492 103.841 178.724V178.693C102.841 136.177 98.5541 93.6307 81.201 55.624L81.5 55.3707C85.9948 51.652 91.5948 49.576 97.0609 47.56C122.508 38.212 147.971 28.864 173.432 19.5147C177.793 32.104 187.604 42.5133 199.327 48.8893C211.737 55.6387 225.924 57.82 240.231 57.82H240.291C254.612 57.82 268.799 55.6387 281.195 48.8893C292.932 42.5133 302.744 32.104 307.104 19.5147C332.551 28.864 358.013 38.212 383.46 47.56C388.941 49.576 394.541 51.652 399.036 55.3707L399.335 55.624C381.981 93.6307 377.695 136.192 376.696 178.708C376.396 191.476 376.381 204.245 376.412 216.893Z" fill="white"/>
</mask>
<g mask="url(#mask8_1_6339)">
<path d="M380.903 428.371C354.979 429.264 329.052 430.155 303.127 431.047C302.759 431.06 302.471 431.368 302.483 431.736C302.496 432.104 302.804 432.392 303.172 432.38C329.099 431.488 355.025 430.596 380.949 429.703C381.317 429.691 381.605 429.381 381.593 429.014C381.58 428.645 381.271 428.357 380.903 428.371Z" fill="#DFE1E7"/>
</g>
<mask id="mask9_1_6339" style="mask-type:luminance" maskUnits="userSpaceOnUse" x="81" y="19" width="319" height="435">
<path d="M376.412 216.893C376.56 294.221 376.711 371.563 376.86 448.889C331.521 453.34 284.255 453.369 240.635 453.369H239.903C196.281 453.369 149.016 453.34 103.676 448.889C103.811 371.563 103.975 294.221 104.109 216.893C104.139 204.26 104.125 191.492 103.841 178.724V178.693C102.841 136.177 98.5541 93.6307 81.201 55.624L81.5 55.3707C85.9948 51.652 91.5948 49.576 97.0609 47.56C122.508 38.212 147.971 28.864 173.432 19.5147C177.793 32.104 187.604 42.5133 199.327 48.8893C211.737 55.6387 225.924 57.82 240.231 57.82H240.291C254.612 57.82 268.799 55.6387 281.195 48.8893C292.932 42.5133 302.744 32.104 307.104 19.5147C332.551 28.864 358.013 38.212 383.46 47.56C388.941 49.576 394.541 51.652 399.036 55.3707L399.335 55.624C381.981 93.6307 377.695 136.192 376.696 178.708C376.396 191.476 376.381 204.245 376.412 216.893Z" fill="white"/>
</mask>
<g mask="url(#mask9_1_6339)">
<path d="M109.753 56.04C129.476 45.7267 150.744 38.3707 172.624 34.2933C172.987 34.2253 173.225 33.8773 173.157 33.5147C173.089 33.1533 172.741 32.9147 172.38 32.9813C150.369 37.0853 128.977 44.484 109.135 54.8573C108.809 55.028 108.683 55.4306 108.853 55.7573C109.024 56.084 109.427 56.2093 109.753 56.04Z" fill="#DFE1E7"/>
</g>
<path d="M306.473 19.2974C302.181 31.7 292.487 41.9987 280.876 48.304H280.875C268.617 54.98 254.547 57.1534 240.291 57.1534H240.231C225.989 57.1534 211.917 54.98 199.645 48.304C188.049 41.9987 178.355 31.7 174.063 19.2974C173.941 18.9494 173.561 18.764 173.215 18.8854C172.867 19.0054 172.681 19.3854 172.803 19.7334C177.231 32.5094 187.159 43.028 199.008 49.4747C211.556 56.2987 225.859 58.4854 240.231 58.4867H240.291C254.677 58.4854 268.98 56.2987 281.513 49.4747H281.512C293.377 43.028 303.305 32.5094 307.733 19.7334C307.853 19.3854 307.669 19.0054 307.321 18.8854C306.973 18.764 306.595 18.9494 306.473 19.2974Z" fill="#6B758D"/>
<path d="M103.611 449.553C148.995 454.007 196.28 454.036 239.903 454.036H240.635C284.256 454.036 331.541 454.007 376.924 449.553C377.291 449.517 377.559 449.191 377.523 448.824C377.487 448.457 377.161 448.189 376.795 448.225C331.5 452.672 284.255 452.703 240.635 452.703H239.903C196.281 452.703 149.036 452.672 103.742 448.225C103.375 448.189 103.049 448.457 103.013 448.824C102.977 449.191 103.245 449.517 103.611 449.553Z" fill="#6B758D"/>
<path d="M112.536 459.622C109.793 459.388 107.059 459.139 104.328 458.874C104.328 455.792 104.329 452.703 104.34 449.624C107.064 449.888 109.8 450.138 112.536 450.371C112.536 453.765 112.536 456.863 112.536 459.622ZM112.536 449.033C109.799 448.798 107.068 448.55 104.344 448.284C104.355 442.15 104.366 436.004 104.377 429.868C107.097 429.962 109.816 430.055 112.536 430.149C112.536 437.085 112.536 443.44 112.536 449.033ZM112.536 428.815C109.818 428.721 107.097 428.628 104.379 428.533C104.506 357.992 104.654 287.436 104.776 216.895C104.782 214.157 104.787 211.413 104.787 208.664C104.787 198.724 104.73 188.717 104.508 178.708V178.693V178.677C104.451 176.257 104.383 173.839 104.303 171.419C106.385 170.635 108.494 169.919 110.621 169.269C111.625 185.937 112.536 208.156 112.536 233.913C112.536 273.059 112.536 370.691 112.536 428.815ZM104.255 170.013C104.101 165.615 103.904 161.217 103.654 156.828C105.485 155.032 107.402 153.323 109.396 151.708C109.757 156.212 110.153 161.647 110.539 167.901C108.422 168.54 106.327 169.244 104.255 170.013ZM103.551 155.073C103.325 151.305 103.058 147.549 102.743 143.797C104.472 141.472 106.224 139.113 108.014 136.696C108.014 136.696 108.557 141.473 109.266 150.104C107.286 151.672 105.379 153.329 103.551 155.073Z" fill="#EAEAE7"/>
<path d="M103.654 156.828C103.621 156.243 103.586 155.657 103.551 155.073C105.379 153.329 107.286 151.672 109.266 150.104C109.309 150.624 109.352 151.16 109.396 151.708C107.402 153.323 105.485 155.032 103.654 156.828Z" fill="#CDCFD4"/>
<path d="M104.303 171.419C104.287 170.951 104.271 170.48 104.255 170.013C106.327 169.244 108.422 168.54 110.539 167.901C110.565 168.353 110.593 168.809 110.621 169.269C108.494 169.919 106.385 170.635 104.303 171.419Z" fill="#CDCFD4"/>
<path d="M112.536 430.149C109.816 430.055 107.097 429.961 104.377 429.868C104.378 429.42 104.378 428.983 104.379 428.533C107.097 428.628 109.818 428.721 112.536 428.815C112.536 429.26 112.536 429.708 112.536 430.149Z" fill="#CDCFD4"/>
<path d="M112.536 450.371C109.8 450.137 107.064 449.888 104.34 449.624C104.341 449.38 104.342 449.136 104.343 448.892V448.891C104.343 448.688 104.344 448.488 104.344 448.284C107.068 448.549 109.799 448.798 112.536 449.033C112.536 449.485 112.536 449.929 112.536 450.371Z" fill="#636C83"/>
<path d="M345.549 461.22C345.412 458.508 345.26 455.42 345.101 451.993C355.517 451.396 365.904 450.622 376.193 449.624C376.195 452.705 376.207 455.795 376.208 458.873C366.065 459.859 355.82 460.625 345.549 461.22ZM345.039 450.661C344.776 444.929 344.492 438.308 344.215 430.968C354.861 430.601 365.508 430.235 376.156 429.868C376.168 436.008 376.18 442.144 376.192 448.285C365.887 449.286 355.477 450.063 345.039 450.661ZM344.164 429.635C343.077 400.604 342.084 360.723 342.623 320C343.281 270.251 347.477 205.941 350.48 165.296C359.276 166.243 367.953 168.305 376.233 171.42C376.153 173.844 376.085 176.269 376.029 178.692C375.793 188.751 375.735 198.807 375.735 208.801C375.735 211.504 375.739 214.203 375.745 216.896C375.881 287.436 376.017 357.992 376.153 428.533C365.492 428.902 354.825 429.268 344.164 429.635ZM359.759 218.515C359.749 218.515 359.74 218.515 359.732 218.515C359.364 218.529 359.077 218.84 359.092 219.208C359.972 240.899 360.411 262.607 360.411 284.316C360.411 301.704 360.129 319.092 359.565 336.471C359.553 336.839 359.843 337.147 360.211 337.159C360.217 337.159 360.225 337.159 360.232 337.159C360.591 337.159 360.887 336.875 360.899 336.513C361.463 319.12 361.744 301.719 361.744 284.316C361.744 262.589 361.305 240.863 360.424 219.153C360.409 218.795 360.115 218.515 359.759 218.515ZM376.281 170.015C368.009 166.943 359.352 164.907 350.579 163.965C351.273 154.604 351.9 146.559 352.399 140.304C361.468 144.275 369.817 149.9 376.883 156.833C376.633 161.221 376.436 165.616 376.281 170.015ZM376.985 155.077C369.872 148.292 361.539 142.792 352.511 138.9C353.171 130.667 353.58 125.913 353.58 125.913C353.58 125.913 363.711 133.813 377.501 147.463C377.309 149.997 377.139 152.537 376.985 155.077Z" fill="#EAEAE7"/>
<path d="M376.883 156.833C369.817 149.9 361.468 144.275 352.399 140.304C352.437 139.825 352.475 139.357 352.511 138.9C361.539 142.792 369.872 148.292 376.985 155.077C376.951 155.663 376.916 156.248 376.883 156.833Z" fill="#CDCFD4"/>
<path d="M376.233 171.42C367.953 168.305 359.276 166.243 350.48 165.296C350.513 164.852 350.547 164.404 350.579 163.965C359.352 164.907 368.009 166.943 376.281 170.015C376.265 170.485 376.249 170.951 376.233 171.42Z" fill="#CDCFD4"/>
<path d="M360.232 337.159C360.225 337.159 360.217 337.159 360.211 337.159C359.843 337.147 359.553 336.839 359.565 336.471C360.129 319.092 360.411 301.704 360.411 284.316C360.411 262.607 359.972 240.899 359.092 219.208C359.077 218.84 359.364 218.529 359.732 218.515C359.74 218.515 359.749 218.515 359.759 218.515C360.115 218.515 360.409 218.795 360.424 219.153C361.305 240.863 361.744 262.589 361.744 284.316C361.744 301.719 361.463 319.12 360.899 336.513C360.887 336.875 360.591 337.159 360.232 337.159Z" fill="#CDCFD4"/>
<path d="M344.215 430.968C344.197 430.528 344.18 430.08 344.164 429.635C354.825 429.268 365.492 428.902 376.153 428.533C376.155 428.977 376.155 429.424 376.156 429.868C365.508 430.235 354.861 430.601 344.215 430.968Z" fill="#CDCFD4"/>
<path d="M345.101 451.993C345.08 451.555 345.06 451.11 345.039 450.661C355.477 450.063 365.887 449.286 376.192 448.285C376.192 448.488 376.192 448.688 376.193 448.891C376.193 449.135 376.193 449.38 376.193 449.624C365.904 450.622 355.517 451.396 345.101 451.993Z" fill="#636C83"/>
<path d="M376.412 216.893L377.079 216.892C377.072 214.2 377.068 211.503 377.068 208.801C377.068 198.812 377.127 188.767 377.361 178.724C378.36 136.24 382.648 93.7707 399.941 55.9013C400.065 55.6307 399.993 55.3094 399.767 55.116L399.468 54.8627L399.461 54.856C394.847 51.044 389.169 48.9533 383.691 46.9347C358.243 37.5853 332.78 28.2373 307.333 18.8893V18.888C303.54 17.5 299.747 16.1107 295.953 14.7227C295.787 14.6613 295.605 14.6694 295.444 14.744C295.283 14.8187 295.16 14.952 295.099 15.12C294.643 16.3693 294.128 17.5893 293.555 18.7947L293.553 18.7973C289.456 27.4947 282.877 35.016 274.731 40.1414C264.789 46.4267 250.865 47.424 240.604 47.416H239.932C229.671 47.424 215.745 46.4267 205.805 40.1414C197.673 35.016 191.08 27.4933 186.983 18.7973L186.981 18.7947C186.408 17.5907 185.895 16.356 185.439 15.1053C185.377 14.9373 185.253 14.8027 185.092 14.728C184.931 14.6533 184.748 14.6467 184.58 14.708C180.788 16.1107 176.996 17.5 173.203 18.888V18.8893C147.74 28.2373 122.279 37.5853 96.8312 46.9347H96.8307C91.3656 48.9533 85.6896 51.044 81.0751 54.856L81.0683 54.8627L80.7693 55.116C80.5421 55.3094 80.4708 55.6307 80.5948 55.9013C97.8875 93.7707 102.176 136.225 103.175 178.709L103.841 178.693H103.175V178.724V178.739C103.396 188.733 103.454 198.729 103.454 208.664C103.454 211.412 103.449 214.155 103.443 216.892C103.308 294.22 103.145 371.561 103.009 448.888V448.886C102.995 452.414 102.995 455.953 102.995 459.477C102.995 459.821 103.254 460.108 103.596 460.141C148.995 464.595 196.265 464.624 239.903 464.624H240.635C284.271 464.624 331.541 464.595 376.94 460.141C377.281 460.108 377.541 459.821 377.541 459.477C377.541 455.951 377.527 452.412 377.527 448.889C377.377 371.561 377.227 294.22 377.079 216.893H376.412L375.745 216.895C375.893 294.223 376.044 371.564 376.193 448.891C376.193 452.416 376.208 455.955 376.208 459.477H376.875L376.809 458.815C331.5 463.26 284.269 463.291 240.635 463.291H239.903C196.267 463.291 149.036 463.26 103.727 458.815L103.661 459.477H104.328C104.328 455.953 104.328 452.415 104.343 448.892V448.891C104.478 371.564 104.642 294.223 104.776 216.895C104.782 214.157 104.787 211.413 104.787 208.664C104.787 198.724 104.73 188.717 104.508 178.708L103.841 178.724H104.508V178.693V178.677C103.505 136.129 99.2203 93.4907 81.8079 55.348L81.2011 55.624L81.6328 56.132L81.9317 55.8787L81.5 55.3707L81.9251 55.884C86.3005 52.2613 91.8245 50.1987 97.2917 48.1867H97.2912C122.737 38.8373 148.2 29.4894 173.661 20.14V20.1414C177.455 18.752 181.248 17.3627 185.043 15.9587L184.812 15.3333L184.185 15.5613C184.655 16.8493 185.185 18.124 185.777 19.3693L185.776 19.3667C189.983 28.292 196.74 36.0027 205.095 41.2693C215.464 47.7973 229.585 48.7427 239.932 48.7507H240.604C250.951 48.7427 265.072 47.7973 275.441 41.2693C283.811 36.0027 290.553 28.2907 294.759 19.3667V19.3693C295.349 18.1267 295.88 16.8667 296.351 15.576L295.724 15.348L295.496 15.9747C299.288 17.3627 303.081 18.752 306.875 20.1414L306.873 20.14C332.321 29.4894 357.783 38.8373 383.231 48.1867C388.712 50.1987 394.236 52.2613 398.611 55.884L399.036 55.3707L398.604 55.8787L398.903 56.132L399.335 55.624L398.728 55.348C381.315 93.4907 377.031 136.144 376.029 178.692C375.793 188.751 375.735 198.807 375.735 208.801C375.735 211.504 375.739 214.203 375.745 216.896L376.412 216.893Z" fill="#1C283E"/>
<path d="M294.156 19.0813C290.004 27.892 283.344 35.5093 275.085 40.7053C264.931 47.112 250.908 48.084 240.604 48.084H239.932C229.628 48.084 215.605 47.112 205.449 40.7053C197.207 35.5093 190.531 27.892 186.38 19.0813C203.344 26.4147 223.056 29.6853 240.111 29.6853H240.409C257.479 29.6853 277.192 26.4147 294.156 19.0813Z" fill="#CAD9D7"/>
<path d="M294.156 19.0813L293.553 18.7973C289.456 27.4946 282.877 35.016 274.731 40.1413C264.789 46.4266 250.865 47.4239 240.604 47.4173H239.932C229.671 47.4239 215.745 46.4266 205.805 40.1413C197.673 35.016 191.08 27.4933 186.983 18.7973L186.38 19.0813L186.115 19.6933C203.187 27.0706 222.972 30.3493 240.111 30.3519H240.409C257.564 30.3493 277.349 27.0706 294.421 19.6933L294.156 19.0813L293.892 18.4706C277.033 25.7573 257.395 29.0199 240.409 29.0186H240.111C223.141 29.0199 203.501 25.7573 186.644 18.4706C186.389 18.36 186.093 18.4186 185.9 18.6186C185.708 18.8173 185.659 19.1146 185.776 19.3666C189.983 28.292 196.74 36.0026 205.095 41.2693C215.464 47.7973 229.585 48.7426 239.932 48.7506H240.604C250.951 48.7426 265.072 47.7973 275.441 41.2693C283.811 36.0026 290.553 28.2906 294.759 19.3666C294.877 19.1146 294.828 18.8173 294.635 18.6186C294.443 18.4186 294.147 18.36 293.892 18.4706L294.156 19.0813Z" fill="#1C283E"/>
<path d="M295.724 15.348C295.261 16.6173 294.739 17.8573 294.156 19.0813C277.192 26.4147 257.479 29.6853 240.409 29.6853H240.111C223.056 29.6853 203.344 26.4147 186.38 19.0813C185.797 17.8573 185.275 16.6026 184.812 15.3333C187.425 14.3773 190.024 13.4213 192.637 12.4666C208.361 18.14 225.551 19.604 240.26 19.604C254.985 19.604 272.173 18.14 287.899 12.4666C290.512 13.4213 293.111 14.3773 295.724 15.348Z" fill="#A2BAB9"/>
<path d="M295.724 15.3481L295.099 15.1201C294.643 16.3694 294.128 17.5894 293.555 18.7961L294.156 19.0814L293.892 18.4707C277.033 25.7574 257.395 29.0201 240.409 29.0187H240.111C223.141 29.0201 203.501 25.7574 186.644 18.4707L186.38 19.0814L186.981 18.7961C186.408 17.5907 185.895 16.3561 185.439 15.1054L184.812 15.3334L185.041 15.9601C187.655 15.0041 190.253 14.0481 192.865 13.0921L192.637 12.4667L192.411 13.0934C208.248 18.8067 225.507 20.2694 240.26 20.2707C255.029 20.2694 272.288 18.8067 288.125 13.0934L287.899 12.4667L287.671 13.0921C290.283 14.0481 292.88 15.0027 295.492 15.9734L295.724 15.3481L295.957 14.7241C293.341 13.7521 290.743 12.796 288.128 11.84C287.981 11.7854 287.82 11.7854 287.673 11.8387C272.06 17.4747 254.941 18.9387 240.26 18.9374C225.595 18.9387 208.476 17.4747 192.863 11.8387C192.716 11.7854 192.555 11.7854 192.408 11.84C189.793 12.796 187.196 13.7521 184.583 14.7067C184.237 14.8334 184.06 15.2161 184.185 15.5614C184.655 16.8494 185.185 18.1241 185.777 19.3694C185.847 19.5147 185.967 19.6294 186.115 19.6934C203.187 27.0707 222.972 30.3494 240.111 30.3521H240.409C257.564 30.3494 277.349 27.0707 294.421 19.6934C294.569 19.6294 294.688 19.5147 294.759 19.3694C295.349 18.1254 295.88 16.8667 296.351 15.5774C296.476 15.2334 296.3 14.8507 295.957 14.7241L295.724 15.3481Z" fill="#1C283E"/>
<path d="M81.2011 55.624C75.676 60.3133 72.3307 67.064 69.1495 73.6053C52.1995 108.52 35.2349 143.435 18.5541 177.783V177.797C17.1953 180.575 15.8516 183.337 14.5073 186.1C32.6068 201.572 53.2604 214.056 76.2735 222.628C78.3188 220 80.3203 217.312 82.2765 214.595C90.4303 203.245 97.6432 191.252 103.841 178.724V178.693C102.841 136.177 98.5541 93.6307 81.2011 55.624Z" fill="white"/>
<mask id="mask10_1_6339" style="mask-type:luminance" maskUnits="userSpaceOnUse" x="18" y="55" width="86" height="160">
<path d="M103.841 178.693V178.724C97.6432 191.252 90.4302 203.245 82.2765 214.595C59.3688 205.589 37.8041 193.135 18.5541 177.797V177.783C35.2349 143.435 52.1994 108.52 69.1494 73.6053C72.3306 67.064 75.676 60.3133 81.201 55.624C98.5541 93.6307 102.841 136.177 103.841 178.693Z" fill="white"/>
</mask>
<g mask="url(#mask10_1_6339)">
<path d="M65.3005 118.072C71.8286 101.8 80.6297 86.4427 91.3661 72.5827C91.5917 72.2907 91.5385 71.872 91.2473 71.6467C90.9562 71.4214 90.5374 71.4747 90.312 71.7654C79.4994 85.724 70.6374 101.189 64.063 117.575C63.926 117.917 64.0917 118.305 64.4333 118.443C64.775 118.58 65.1636 118.413 65.3005 118.072Z" fill="#DFE1E7"/>
</g>
<mask id="mask11_1_6339" style="mask-type:luminance" maskUnits="userSpaceOnUse" x="18" y="55" width="86" height="160">
<path d="M103.841 178.693V178.724C97.6432 191.252 90.4302 203.245 82.2765 214.595C59.3688 205.589 37.8041 193.135 18.5541 177.797V177.783C35.2349 143.435 52.1994 108.52 69.1494 73.6053C72.3306 67.064 75.676 60.3133 81.201 55.624C98.5541 93.6307 102.841 136.177 103.841 178.693Z" fill="white"/>
</mask>
<g mask="url(#mask11_1_6339)">
<path d="M44.0458 175.435C54.2702 186.169 66.4521 195.032 79.8156 201.455C80.1473 201.613 80.5453 201.475 80.7046 201.143C80.8645 200.811 80.7245 200.412 80.3926 200.252C67.1765 193.901 55.124 185.132 45.0115 174.516C44.7573 174.249 44.3354 174.239 44.0688 174.492C43.8021 174.747 43.7917 175.168 44.0458 175.435Z" fill="#DFE1E7"/>
</g>
<mask id="mask12_1_6339" style="mask-type:luminance" maskUnits="userSpaceOnUse" x="18" y="55" width="86" height="160">
<path d="M103.841 178.693V178.724C97.6432 191.252 90.4302 203.245 82.2765 214.595C59.3688 205.589 37.8041 193.135 18.5541 177.797V177.783C35.2349 143.435 52.1994 108.52 69.1494 73.6053C72.3306 67.064 75.676 60.3133 81.201 55.624C98.5541 93.6307 102.841 136.177 103.841 178.693Z" fill="white"/>
</mask>
<g mask="url(#mask12_1_6339)">
<path d="M82.662 191.879C75.1812 188.365 68.5802 182.983 63.6297 176.367C63.4088 176.071 62.9912 176.011 62.6964 176.232C62.4016 176.452 62.3412 176.871 62.562 177.165C67.6464 183.959 74.414 189.476 82.0948 193.085C82.4281 193.241 82.825 193.099 82.9817 192.765C83.138 192.432 82.9953 192.035 82.662 191.879Z" fill="#DFE1E7"/>
</g>
<path d="M18.1385 178.319C37.4407 193.697 59.0625 206.185 82.0328 215.215C82.3754 215.349 82.7625 215.181 82.8973 214.839C83.0317 214.496 82.8636 214.108 82.5208 213.973C59.6745 204.993 38.1672 192.571 18.9693 177.276C18.6817 177.047 18.262 177.095 18.0328 177.383C17.8031 177.669 17.8505 178.089 18.1385 178.319Z" fill="#6B758D"/>
<path d="M76.0973 222.563C76.0802 222.556 76.0625 222.549 76.0448 222.543C76.062 222.549 76.0806 222.556 76.0973 222.563ZM75.8989 222.488C75.8797 222.481 75.8598 222.473 75.8406 222.467C75.8598 222.473 75.8792 222.481 75.8989 222.488ZM75.5098 222.343C75.4817 222.332 75.4526 222.32 75.424 222.309C75.4536 222.321 75.4806 222.331 75.5098 222.343ZM75.3036 222.264C75.2781 222.255 75.2526 222.245 75.227 222.235C75.2536 222.245 75.277 222.255 75.3036 222.264ZM75.1202 222.195C75.0833 222.18 75.0453 222.167 75.0084 222.152C75.0458 222.167 75.0828 222.18 75.1202 222.195ZM74.9036 222.112C74.876 222.101 74.8478 222.091 74.8202 222.08C74.8478 222.091 74.8754 222.101 74.9036 222.112ZM74.7254 222.044C74.6833 222.028 74.6417 222.012 74.5989 221.996C74.6412 222.012 74.6838 222.028 74.7254 222.044ZM74.5046 221.96C74.476 221.949 74.4464 221.937 74.4177 221.927C74.4473 221.937 74.4754 221.949 74.5046 221.96ZM74.3234 221.891C74.2838 221.875 74.2442 221.86 74.2046 221.844C74.2437 221.86 74.2844 221.875 74.3234 221.891ZM73.2926 221.491C73.2693 221.481 73.2473 221.473 73.224 221.464C73.2458 221.473 73.2702 221.483 73.2926 221.491ZM73.0953 221.413C73.0806 221.408 73.0656 221.403 73.051 221.396C73.065 221.401 73.0812 221.408 73.0953 221.413ZM72.886 221.332C72.8682 221.325 72.85 221.317 72.8322 221.311C72.8505 221.317 72.8682 221.324 72.886 221.332ZM72.6713 221.247C72.6666 221.245 72.6636 221.244 72.6588 221.243C72.663 221.244 72.6672 221.245 72.6713 221.247ZM72.4754 221.169C72.4656 221.165 72.4557 221.161 72.4458 221.157C72.4568 221.163 72.4645 221.165 72.4754 221.169ZM72.0666 221.008C72.064 221.007 72.062 221.005 72.0588 221.004C72.0604 221.005 72.065 221.007 72.0666 221.008Z" fill="#C3CCCA"/>
<path d="M76.2734 222.628C76.2145 222.607 76.1562 222.584 76.0973 222.563C76.0806 222.556 76.062 222.549 76.0448 222.543C75.9958 222.525 75.9478 222.507 75.8989 222.488C75.8792 222.481 75.8598 222.473 75.8406 222.467C75.7942 222.449 75.7469 222.432 75.701 222.413C75.6786 222.405 75.6562 222.397 75.6338 222.389C75.5921 222.373 75.5516 222.357 75.5098 222.343C75.4806 222.331 75.4536 222.321 75.424 222.309C75.3838 222.295 75.3442 222.28 75.3036 222.264C75.277 222.255 75.2536 222.245 75.227 222.235C75.1912 222.221 75.1562 222.208 75.1202 222.195C75.0828 222.18 75.0458 222.167 75.0084 222.152C74.9729 222.139 74.9385 222.125 74.9036 222.112C74.8754 222.101 74.8478 222.091 74.8202 222.08C74.7885 222.068 74.7573 222.056 74.7254 222.044C74.6838 222.028 74.6412 222.012 74.5989 221.996C74.5677 221.984 74.5364 221.972 74.5046 221.96C74.4754 221.949 74.4473 221.937 74.4177 221.927C74.386 221.915 74.3552 221.903 74.3234 221.891C74.2844 221.875 74.2437 221.86 74.2046 221.844C74.1697 221.831 74.1344 221.817 74.0994 221.804C74.0729 221.793 74.0448 221.783 74.0182 221.773C73.9844 221.76 73.9505 221.747 73.9166 221.733C73.8817 221.72 73.8473 221.707 73.8125 221.693C73.774 221.679 73.736 221.664 73.6973 221.648C73.6718 221.639 73.6469 221.629 73.6218 221.619C73.5828 221.604 73.5437 221.589 73.5046 221.573C73.4797 221.564 73.4536 221.553 73.4286 221.544C73.3833 221.527 73.338 221.509 73.2926 221.491C73.2702 221.483 73.2458 221.473 73.224 221.464C73.1812 221.448 73.138 221.431 73.0953 221.413C73.0812 221.408 73.065 221.401 73.051 221.396C72.9958 221.375 72.9412 221.353 72.886 221.332C72.8682 221.324 72.8505 221.317 72.8322 221.311C72.7786 221.289 72.725 221.268 72.6713 221.247C72.6672 221.245 72.663 221.244 72.6588 221.243C72.5978 221.219 72.5364 221.193 72.4754 221.169C72.4645 221.165 72.4568 221.163 72.4458 221.157C72.3188 221.108 72.1932 221.057 72.0666 221.008C72.065 221.007 72.0604 221.005 72.0588 221.004C64.9552 218.176 58.0833 214.969 51.4489 211.415C53.1984 209.164 55.1469 206.648 57.286 203.877C65.2693 208.079 73.4822 211.847 81.874 215.152C80.2297 217.425 78.5541 219.676 76.8473 221.888C76.6568 222.135 76.465 222.381 76.2734 222.628Z" fill="#EAEAE7"/>
<path d="M82.6645 214.052C82.6208 214.021 82.5729 213.995 82.5208 213.973C74.1906 210.7 66.0401 206.968 58.113 202.807C60.3526 199.901 62.7921 196.728 65.4208 193.296C70.0286 196.333 74.8401 199.064 79.8156 201.455C79.9084 201.499 80.0068 201.52 80.1036 201.52C80.3516 201.52 80.5901 201.381 80.7046 201.143C80.8645 200.811 80.7245 200.412 80.3926 200.252C75.5005 197.901 70.7672 195.219 66.2333 192.235C67.7552 190.245 69.3396 188.171 70.9828 186.013C74.3693 188.825 78.1088 191.212 82.0948 193.085C82.1864 193.128 82.2828 193.148 82.3776 193.148C82.6281 193.148 82.8682 193.007 82.9817 192.765C83.138 192.432 82.9953 192.035 82.662 191.879C78.763 190.047 75.103 187.708 71.7912 184.952C80.3906 173.657 90.5833 160.145 102.137 144.612C103.065 155.916 103.573 167.305 103.841 178.693V178.724C103.629 179.152 103.416 179.58 103.202 180.007C102.951 180.507 102.698 181.005 102.444 181.504C96.6682 192.832 90.0568 203.707 82.6645 214.052Z" fill="#EAEAE7"/>
<path d="M80.1036 201.52C80.0068 201.52 79.9084 201.499 79.8156 201.455C74.8401 199.064 70.0286 196.333 65.4208 193.296C65.6896 192.944 65.9604 192.591 66.2333 192.235C70.7672 195.219 75.5005 197.901 80.3926 200.252C80.7245 200.412 80.8645 200.811 80.7046 201.143C80.5901 201.381 80.3516 201.52 80.1036 201.52Z" fill="#CDCFD4"/>
<path d="M82.3776 193.148C82.2828 193.148 82.1864 193.128 82.0948 193.085C78.1088 191.212 74.3693 188.825 70.9828 186.013C71.2505 185.661 71.5203 185.308 71.7912 184.952C75.1031 187.708 78.7631 190.047 82.662 191.879C82.9953 192.035 83.138 192.432 82.9817 192.765C82.8683 193.007 82.6281 193.148 82.3776 193.148Z" fill="#CDCFD4"/>
<path d="M81.874 215.152C73.4822 211.847 65.2693 208.079 57.286 203.877C57.5588 203.524 57.8338 203.168 58.113 202.807C66.0401 206.968 74.1906 210.7 82.5208 213.973C82.5729 213.995 82.6208 214.021 82.6645 214.052C82.536 214.232 82.4062 214.413 82.2765 214.593C82.1426 214.78 82.0084 214.967 81.874 215.152Z" fill="#636C83"/>
<path d="M81.201 55.6239L80.7697 55.116C75.1046 59.9306 71.7355 66.7733 68.5505 73.3133H68.55C51.6 108.229 34.6354 143.144 17.9541 177.491L17.8874 177.783V177.797H18.5541L17.9552 177.504C16.5958 180.283 15.2521 183.047 13.9078 185.808C13.7745 186.081 13.8426 186.409 14.074 186.607C32.2292 202.127 52.9516 214.653 76.0406 223.253C76.314 223.355 76.6202 223.268 76.7994 223.037C78.851 220.401 80.8573 217.707 82.8177 214.984H82.8182C90.9926 203.604 98.2245 191.581 104.439 179.019L104.508 178.723V178.693V178.677C103.505 136.129 99.2208 93.4906 81.8078 55.348C81.7208 55.1573 81.5505 55.0186 81.3464 54.9733C81.1417 54.928 80.9297 54.98 80.7697 55.116L81.201 55.6239L80.5948 55.9013C97.8874 93.7706 102.176 136.225 103.175 178.709L103.841 178.693H103.175V178.723H103.841L103.244 178.428C97.062 190.924 89.8677 202.885 81.7354 214.205C79.7833 216.916 77.7869 219.599 75.7473 222.219L76.2735 222.628L76.5062 222.004C53.5693 213.46 32.9844 201.017 14.9406 185.593L14.5073 186.1L15.1068 186.392C16.451 183.629 17.7948 180.867 19.153 178.091L19.2208 177.797V177.783H18.5541L19.1536 178.073C35.8349 143.727 52.7994 108.812 69.7494 73.896C72.926 67.3546 76.2469 60.6973 81.6322 56.132L81.201 55.6239Z" fill="#1C283E"/>
<path d="M399.335 55.624C404.86 60.3133 408.205 67.064 411.385 73.6053C428.336 108.52 445.301 143.435 461.981 177.783V177.797C463.34 180.575 464.685 183.337 466.028 186.1C447.929 201.572 427.276 214.056 404.263 222.628C402.217 220 400.216 217.312 398.259 214.595C390.105 203.245 382.892 191.252 376.696 178.724V178.693C377.695 136.177 381.981 93.6307 399.335 55.624Z" fill="white"/>
<mask id="mask13_1_6339" style="mask-type:luminance" maskUnits="userSpaceOnUse" x="376" y="55" width="86" height="160">
<path d="M376.696 178.693V178.724C382.892 191.252 390.105 203.245 398.259 214.595C421.168 205.589 442.732 193.135 461.981 177.797V177.783C445.301 143.435 428.336 108.52 411.385 73.6053C408.205 67.064 404.86 60.3133 399.335 55.624C381.981 93.6307 377.695 136.177 376.696 178.693Z" fill="white"/>
</mask>
<g mask="url(#mask13_1_6339)">
<path d="M416.473 117.575C409.899 101.189 401.036 85.724 390.224 71.7654C389.999 71.4747 389.58 71.4214 389.288 71.6467C388.997 71.872 388.944 72.2907 389.169 72.5827C399.907 86.4427 408.707 101.8 415.236 118.072C415.372 118.413 415.76 118.58 416.103 118.443C416.444 118.305 416.609 117.917 416.473 117.575Z" fill="#DFE1E7"/>
</g>
<mask id="mask14_1_6339" style="mask-type:luminance" maskUnits="userSpaceOnUse" x="376" y="55" width="86" height="160">
<path d="M376.696 178.693V178.724C382.892 191.252 390.105 203.245 398.259 214.595C421.168 205.589 442.732 193.135 461.981 177.797V177.783C445.301 143.435 428.336 108.52 411.385 73.6053C408.205 67.064 404.86 60.3133 399.335 55.624C381.981 93.6307 377.695 136.177 376.696 178.693Z" fill="white"/>
</mask>
<g mask="url(#mask14_1_6339)">
<path d="M435.524 174.516C425.412 185.132 413.36 193.901 400.143 200.252C399.811 200.412 399.671 200.811 399.831 201.143C399.991 201.475 400.388 201.613 400.72 201.455C414.084 195.032 426.265 186.169 436.489 175.435C436.744 175.168 436.733 174.747 436.467 174.493C436.2 174.239 435.779 174.249 435.524 174.516Z" fill="#DFE1E7"/>
</g>
<mask id="mask15_1_6339" style="mask-type:luminance" maskUnits="userSpaceOnUse" x="376" y="55" width="86" height="160">
<path d="M376.696 178.693V178.724C382.892 191.252 390.105 203.245 398.259 214.595C421.168 205.589 442.732 193.135 461.981 177.797V177.783C445.301 143.435 428.336 108.52 411.385 73.6053C408.205 67.064 404.86 60.3133 399.335 55.624C381.981 93.6307 377.695 136.177 376.696 178.693Z" fill="white"/>
</mask>
<g mask="url(#mask15_1_6339)">
<path d="M398.441 193.085C406.123 189.476 412.889 183.959 417.973 177.165C418.195 176.871 418.135 176.452 417.84 176.232C417.545 176.011 417.127 176.071 416.907 176.367C411.955 182.983 405.355 188.365 397.875 191.879C397.54 192.035 397.397 192.432 397.555 192.765C397.711 193.099 398.108 193.241 398.441 193.085Z" fill="#DFE1E7"/>
</g>
<path d="M461.567 177.276C442.368 192.571 420.861 204.993 398.015 213.973C397.672 214.108 397.504 214.496 397.639 214.839C397.773 215.181 398.16 215.349 398.503 215.215C421.475 206.185 443.095 193.697 462.397 178.319C462.685 178.089 462.732 177.669 462.503 177.383C462.273 177.095 461.855 177.047 461.567 177.276Z" fill="#6B758D"/>
<path d="M404.84 222.412C404.849 222.409 404.856 222.407 404.865 222.403C404.856 222.407 404.848 222.409 404.84 222.412Z" fill="#C3CCCA"/>
<path d="M404.263 222.628C404.071 222.381 403.88 222.135 403.689 221.888C401.981 219.676 400.307 217.425 398.663 215.152C407.147 211.811 415.445 207.997 423.512 203.74C425.184 206.371 426.817 209.047 428.408 211.769C420.861 215.775 413.013 219.337 404.865 222.403C404.856 222.407 404.849 222.409 404.84 222.412C404.781 222.435 404.72 222.457 404.661 222.48C404.652 222.483 404.643 222.487 404.633 222.489C404.584 222.508 404.535 222.527 404.485 222.545C404.468 222.552 404.452 222.557 404.435 222.564C404.379 222.585 404.32 222.607 404.263 222.628Z" fill="#EAEAE7"/>
<path d="M376.7 178.517C376.717 177.755 376.737 176.992 376.757 176.229C376.737 176.992 376.717 177.753 376.7 178.517ZM376.761 176.071C376.761 176.06 376.761 176.051 376.763 176.041C376.761 176.052 376.761 176.06 376.761 176.071Z" fill="#192438"/>
<path d="M397.871 214.052C390.479 203.707 383.868 192.832 378.092 181.504C377.837 181.005 377.584 180.504 377.333 180.003C377.119 179.577 376.907 179.151 376.696 178.724V178.693C376.697 178.635 376.699 178.576 376.7 178.517C376.717 177.753 376.737 176.992 376.757 176.229C376.759 176.176 376.76 176.123 376.761 176.071C376.761 176.06 376.761 176.052 376.763 176.041C377.013 166.703 377.435 157.367 378.127 148.083C387.691 157.593 398.939 169.817 409.779 184.067C406.201 187.211 402.184 189.855 397.875 191.879C397.54 192.035 397.397 192.432 397.555 192.765C397.668 193.007 397.908 193.148 398.157 193.148C398.253 193.148 398.349 193.128 398.441 193.085C402.836 191.02 406.933 188.329 410.587 185.132C412.171 187.235 413.747 189.38 415.305 191.567C410.468 194.821 405.397 197.728 400.143 200.252C399.811 200.412 399.671 200.811 399.831 201.143C399.945 201.381 400.184 201.52 400.432 201.52C400.529 201.52 400.628 201.499 400.72 201.455C406.043 198.896 411.179 195.951 416.077 192.655C418.359 195.887 420.605 199.212 422.792 202.612C414.749 206.852 406.473 210.649 398.015 213.973C397.963 213.995 397.915 214.021 397.871 214.052Z" fill="#EAEAE7"/>
<path d="M400.432 201.52C400.184 201.52 399.945 201.381 399.831 201.143C399.671 200.811 399.811 200.412 400.143 200.252C405.397 197.728 410.468 194.821 415.305 191.567C415.563 191.928 415.82 192.291 416.077 192.655C411.179 195.951 406.043 198.896 400.72 201.455C400.628 201.499 400.529 201.52 400.432 201.52Z" fill="#CDCFD4"/>
<path d="M398.157 193.148C397.908 193.148 397.668 193.007 397.555 192.765C397.397 192.432 397.54 192.035 397.875 191.879C402.184 189.855 406.201 187.211 409.779 184.067C410.049 184.421 410.317 184.775 410.587 185.132C406.933 188.329 402.836 191.02 398.441 193.085C398.349 193.128 398.253 193.148 398.157 193.148Z" fill="#CDCFD4"/>
<path d="M398.663 215.152C398.528 214.967 398.393 214.78 398.259 214.593C398.129 214.413 398 214.232 397.871 214.052C397.915 214.021 397.963 213.995 398.015 213.973C406.473 210.649 414.749 206.852 422.792 202.612C423.032 202.988 423.272 203.363 423.512 203.74C415.445 207.997 407.147 211.811 398.663 215.152Z" fill="#636C83"/>
<path d="M399.335 55.6239L398.903 56.132C404.289 60.6973 407.609 67.3546 410.787 73.896C427.736 108.812 444.701 143.727 461.383 178.073L461.981 177.783H461.315V177.797L461.383 178.091C462.741 180.867 464.085 183.629 465.429 186.392L466.028 186.1L465.596 185.593C447.552 201.017 426.967 213.46 404.031 222.004L404.263 222.628L404.789 222.219C402.749 219.599 400.752 216.916 398.8 214.205C390.668 202.885 383.473 190.924 377.293 178.428L376.695 178.723H377.361V178.693H376.695L377.361 178.709C378.36 136.225 382.648 93.7706 399.941 55.9013L399.335 55.6239L398.728 55.348C381.315 93.4906 377.031 136.129 376.029 178.677L376.028 178.693V178.723L376.097 179.019C382.311 191.581 389.543 203.604 397.717 214.984C399.679 217.707 401.685 220.401 403.737 223.037C403.916 223.268 404.223 223.355 404.496 223.253C427.584 214.653 448.307 202.127 466.461 186.607C466.693 186.409 466.761 186.081 466.628 185.808C465.284 183.047 463.94 180.283 462.58 177.504L461.981 177.797H462.648V177.783L462.581 177.491C445.9 143.144 428.936 108.229 411.985 73.3133C408.8 66.7733 405.431 59.9306 399.765 55.116C399.607 54.98 399.393 54.928 399.189 54.9733C398.985 55.0186 398.815 55.1573 398.728 55.348L399.335 55.6239Z" fill="#1C283E"/>
<path id="segmentA1"   d="M82 56.5L400 56L466.5 186"
                        className="measurement" stroke="#FF0000" stroke-width="5" fill="none"
                        stroke-dasharray="1000" stroke-dashoffset="1000" />
                  <path id="segmentA2"   d="M15 186.5L76.5 222.5"
                        className="measurement" stroke="#FF0000" stroke-width="5" fill="none"
                        stroke-dasharray="1000" stroke-dashoffset="1000"/>
                  <path id="segmentA3"   d="M104.5 180.5H377"
                        className="measurement" stroke="#FF0000" stroke-width="5" fill="none"
                        stroke-dasharray="1000" stroke-dashoffset="1000"/>
                  <path id="segmentA4"   d="M297.5 17.5V463"
                        className="measurement" stroke="#FF0000" stroke-width="5" fill="none"
                        stroke-dasharray="1000" stroke-dashoffset="1000"/>
                  <path id="segmentA5"   d="M185 15.5H296.5"
                        className="measurement" stroke="#FF0000" stroke-width="5" fill="none"
                        stroke-dasharray="1000" stroke-dashoffset="1000"/>
</svg>
